# xmcd
#
# Track frame offsets:
#	150
#	11535
#	32964
#	50704
#	64962
#	78967
#	95347
#	111164
#	127854
#	141079
#	159292
#	170812
#	191584
#	207307
#
# Disc length: 2918 seconds
#
# Revision: 1
# Processed by: cddbd v1.5.1PL2 Copyright (c) Steve Scherf et al.
# Submitted via: audiograbber 1.83.01
#
DISCID=bf0b640e
DTITLE=Black Boot Trio - Eternal Return
DYEAR=2005
DGENRE=
TTITLE0=Four Horsemen
TTITLE1=Give Yourself Away
TTITLE2=You Are Love
TTITLE3=I bought Sme Books
TTITLE4=Letter to a Friend
TTITLE5=What Little Thing
TTITLE6=She Wants
TTITLE7=Lets Get Happy
TTITLE8=Room 152
TTITLE9=A Drunk Can Only Blame Himself
TTITLE10=Long Time Since I Talked To Jesus
TTITLE11=You Don't Have To Drink To Have Fun
TTITLE12=I Love You
TTITLE13=Four Horsemen (Reprise)
EXTD=
EXTT0=
EXTT1=
EXTT2=
EXTT3=
EXTT4=
EXTT5=
EXTT6=
EXTT7=
EXTT8=
EXTT9=
EXTT10=
EXTT11=
EXTT12=
EXTT13=
PLAYORDER=
